<?xml version="1.0" encoding="UTF-8" standalone="no"?>
<!DOCTYPE svg PUBLIC "-//W3C//DTD SVG 1.1//EN"
 "http://www.w3.org/Graphics/SVG/1.1/DTD/svg11.dtd">
<!-- Generated by graphviz version 2.47.0 (20210316.0004)
 -->
<!-- Title: dependencies Pages: 1 -->
<svg width="2018pt" height="211pt"
 viewBox="0.00 0.00 2018.00 211.00" xmlns="http://www.w3.org/2000/svg" xmlns:xlink="http://www.w3.org/1999/xlink">
<g id="graph0" class="graph" transform="scale(1 1) rotate(0) translate(4 207)">
<title>dependencies</title>
<polygon fill="white" stroke="transparent" points="-4,4 -4,-207 2014,-207 2014,4 -4,4"/>
<text text-anchor="start" x="984.01" y="-42.4" font-family="Times-12" font-weight="bold" font-size="14.00">Legend</text>
<polygon fill="#ffffb3" stroke="transparent" points="771,-10 771,-30 791,-30 791,-10 771,-10"/>
<text text-anchor="start" x="794.63" y="-15.4" font-family="Times-12" font-size="14.00"> &#160;Declarations</text>
<polygon fill="#8dd3c7" stroke="transparent" points="884,-10 884,-30 904,-30 904,-10 884,-10"/>
<text text-anchor="start" x="907.73" y="-15.4" font-family="Times-12" font-size="14.00"> &#160;Module</text>
<polygon fill="#80b1d3" stroke="transparent" points="970,-10 970,-30 990,-30 990,-10 970,-10"/>
<text text-anchor="start" x="993.78" y="-15.4" font-family="Times-12" font-size="14.00"> &#160;Bootstrap</text>
<polygon fill="#fdb462" stroke="transparent" points="1067,-10 1067,-30 1087,-30 1087,-10 1067,-10"/>
<text text-anchor="start" x="1090.67" y="-15.4" font-family="Times-12" font-size="14.00"> &#160;Providers</text>
<polygon fill="#fb8072" stroke="transparent" points="1163,-10 1163,-30 1183,-30 1183,-10 1163,-10"/>
<text text-anchor="start" x="1186.73" y="-15.4" font-family="Times-12" font-size="14.00"> &#160;Exports</text>
<g id="clust1" class="cluster">
<title>cluster_UsersModule</title>
<polygon fill="none" stroke="black" stroke-dasharray="1,5" points="8,-70 8,-195 2002,-195 2002,-70 8,-70"/>
</g>
<g id="clust6" class="cluster">
<title>cluster_UsersModule_providers</title>
<polygon fill="none" stroke="black" points="16,-78 16,-130 1994,-130 1994,-78 16,-78"/>
</g>
<!-- AddressesService -->
<g id="node1" class="node">
<title>AddressesService</title>
<ellipse fill="#fdb462" stroke="black" cx="1906" cy="-104" rx="79.85" ry="18"/>
<text text-anchor="middle" x="1906" y="-99.8" font-family="Times,serif" font-size="14.00">AddressesService</text>
</g>
<!-- UsersModule -->
<g id="node14" class="node">
<title>UsersModule</title>
<polygon fill="#8dd3c7" stroke="black" points="997.92,-187 994.92,-191 973.92,-191 970.92,-187 906.08,-187 906.08,-151 997.92,-151 997.92,-187"/>
<text text-anchor="middle" x="952" y="-164.8" font-family="Times,serif" font-size="14.00">UsersModule</text>
</g>
<!-- AddressesService&#45;&gt;UsersModule -->
<g id="edge1" class="edge">
<title>AddressesService&#45;&gt;UsersModule</title>
<path fill="none" stroke="black" d="M1906,-122.09C1906,-145.13 1906,-182 1906,-182 1906,-182 1008.01,-182 1008.01,-182"/>
<polygon fill="black" stroke="black" points="1008.01,-178.5 998.01,-182 1008.01,-185.5 1008.01,-178.5"/>
</g>
<!-- AdminsService -->
<g id="node2" class="node">
<title>AdminsService</title>
<ellipse fill="#fdb462" stroke="black" cx="1738" cy="-104" rx="70.64" ry="18"/>
<text text-anchor="middle" x="1738" y="-99.8" font-family="Times,serif" font-size="14.00">AdminsService</text>
</g>
<!-- AdminsService&#45;&gt;UsersModule -->
<g id="edge2" class="edge">
<title>AdminsService&#45;&gt;UsersModule</title>
<path fill="none" stroke="black" d="M1738,-122.04C1738,-143.66 1738,-177 1738,-177 1738,-177 1007.94,-177 1007.94,-177"/>
<polygon fill="black" stroke="black" points="1007.94,-173.5 997.94,-177 1007.94,-180.5 1007.94,-173.5"/>
</g>
<!-- AuthService -->
<g id="node3" class="node">
<title>AuthService</title>
<ellipse fill="#fdb462" stroke="black" cx="1590" cy="-104" rx="59.11" ry="18"/>
<text text-anchor="middle" x="1590" y="-99.8" font-family="Times,serif" font-size="14.00">AuthService</text>
</g>
<!-- AuthService&#45;&gt;UsersModule -->
<g id="edge3" class="edge">
<title>AuthService&#45;&gt;UsersModule</title>
<path fill="none" stroke="black" d="M1590,-122.22C1590,-142.37 1590,-172 1590,-172 1590,-172 1007.88,-172 1007.88,-172"/>
<polygon fill="black" stroke="black" points="1007.88,-168.5 997.88,-172 1007.88,-175.5 1007.88,-168.5"/>
</g>
<!-- CitiesService -->
<g id="node4" class="node">
<title>CitiesService</title>
<ellipse fill="#fdb462" stroke="black" cx="1450" cy="-104" rx="62.55" ry="18"/>
<text text-anchor="middle" x="1450" y="-99.8" font-family="Times,serif" font-size="14.00">CitiesService</text>
</g>
<!-- CitiesService&#45;&gt;UsersModule -->
<g id="edge4" class="edge">
<title>CitiesService&#45;&gt;UsersModule</title>
<path fill="none" stroke="black" d="M1450,-122.22C1450,-140.83 1450,-167 1450,-167 1450,-167 1007.96,-167 1007.96,-167"/>
<polygon fill="black" stroke="black" points="1007.96,-163.5 997.96,-167 1007.96,-170.5 1007.96,-163.5"/>
</g>
<!-- ContactUsService -->
<g id="node5" class="node">
<title>ContactUsService</title>
<ellipse fill="#fdb462" stroke="black" cx="1289" cy="-104" rx="80.51" ry="18"/>
<text text-anchor="middle" x="1289" y="-99.8" font-family="Times,serif" font-size="14.00">ContactUsService</text>
</g>
<!-- ContactUsService&#45;&gt;UsersModule -->
<g id="edge5" class="edge">
<title>ContactUsService&#45;&gt;UsersModule</title>
<path fill="none" stroke="black" d="M1289,-122.03C1289,-139.06 1289,-162 1289,-162 1289,-162 1007.8,-162 1007.8,-162"/>
<polygon fill="black" stroke="black" points="1007.8,-158.5 997.8,-162 1007.8,-165.5 1007.8,-158.5"/>
</g>
<!-- FacebookStrategy -->
<g id="node6" class="node">
<title>FacebookStrategy</title>
<ellipse fill="#fdb462" stroke="black" cx="1109" cy="-104" rx="80.52" ry="18"/>
<text text-anchor="middle" x="1109" y="-99.8" font-family="Times,serif" font-size="14.00">FacebookStrategy</text>
</g>
<!-- FacebookStrategy&#45;&gt;UsersModule -->
<g id="edge6" class="edge">
<title>FacebookStrategy&#45;&gt;UsersModule</title>
<path fill="none" stroke="black" d="M1109,-122.24C1109,-137.57 1109,-157 1109,-157 1109,-157 1007.83,-157 1007.83,-157"/>
<polygon fill="black" stroke="black" points="1007.83,-153.5 997.83,-157 1007.83,-160.5 1007.83,-153.5"/>
</g>
<!-- FaqsService -->
<g id="node7" class="node">
<title>FaqsService</title>
<ellipse fill="#fdb462" stroke="black" cx="952" cy="-104" rx="58.46" ry="18"/>
<text text-anchor="middle" x="952" y="-99.8" font-family="Times,serif" font-size="14.00">FaqsService</text>
</g>
<!-- FaqsService&#45;&gt;UsersModule -->
<g id="edge7" class="edge">
<title>FaqsService&#45;&gt;UsersModule</title>
<path fill="none" stroke="black" d="M952,-122.11C952,-122.11 952,-140.99 952,-140.99"/>
<polygon fill="black" stroke="black" points="948.5,-140.99 952,-150.99 955.5,-140.99 948.5,-140.99"/>
</g>
<!-- GoogleStrategy -->
<g id="node8" class="node">
<title>GoogleStrategy</title>
<ellipse fill="#fdb462" stroke="black" cx="804" cy="-104" rx="71.79" ry="18"/>
<text text-anchor="middle" x="804" y="-99.8" font-family="Times,serif" font-size="14.00">GoogleStrategy</text>
</g>
<!-- GoogleStrategy&#45;&gt;UsersModule -->
<g id="edge8" class="edge">
<title>GoogleStrategy&#45;&gt;UsersModule</title>
<path fill="none" stroke="black" d="M804,-122.24C804,-137.57 804,-157 804,-157 804,-157 895.98,-157 895.98,-157"/>
<polygon fill="black" stroke="black" points="895.98,-160.5 905.98,-157 895.98,-153.5 895.98,-160.5"/>
</g>
<!-- GovesService -->
<g id="node9" class="node">
<title>GovesService</title>
<ellipse fill="#fdb462" stroke="black" cx="650" cy="-104" rx="64.83" ry="18"/>
<text text-anchor="middle" x="650" y="-99.8" font-family="Times,serif" font-size="14.00">GovesService</text>
</g>
<!-- GovesService&#45;&gt;UsersModule -->
<g id="edge9" class="edge">
<title>GovesService&#45;&gt;UsersModule</title>
<path fill="none" stroke="black" d="M650,-122.03C650,-139.06 650,-162 650,-162 650,-162 896.13,-162 896.13,-162"/>
<polygon fill="black" stroke="black" points="896.13,-165.5 906.13,-162 896.13,-158.5 896.13,-165.5"/>
</g>
<!-- JwtStrategy -->
<g id="node10" class="node">
<title>JwtStrategy</title>
<ellipse fill="#fdb462" stroke="black" cx="511" cy="-104" rx="56.76" ry="18"/>
<text text-anchor="middle" x="511" y="-99.8" font-family="Times,serif" font-size="14.00">JwtStrategy</text>
</g>
<!-- JwtStrategy&#45;&gt;UsersModule -->
<g id="edge10" class="edge">
<title>JwtStrategy&#45;&gt;UsersModule</title>
<path fill="none" stroke="black" d="M511,-122.22C511,-140.83 511,-167 511,-167 511,-167 896.05,-167 896.05,-167"/>
<polygon fill="black" stroke="black" points="896.05,-170.5 906.05,-167 896.05,-163.5 896.05,-170.5"/>
</g>
<!-- RolesService -->
<g id="node11" class="node">
<title>RolesService</title>
<ellipse fill="#fdb462" stroke="black" cx="374" cy="-104" rx="61.97" ry="18"/>
<text text-anchor="middle" x="374" y="-99.8" font-family="Times,serif" font-size="14.00">RolesService</text>
</g>
<!-- RolesService&#45;&gt;UsersModule -->
<g id="edge11" class="edge">
<title>RolesService&#45;&gt;UsersModule</title>
<path fill="none" stroke="black" d="M374,-122.22C374,-142.37 374,-172 374,-172 374,-172 896.16,-172 896.16,-172"/>
<polygon fill="black" stroke="black" points="896.16,-175.5 906.16,-172 896.16,-168.5 896.16,-175.5"/>
</g>
<!-- StoresService -->
<g id="node12" class="node">
<title>StoresService</title>
<ellipse fill="#fdb462" stroke="black" cx="230" cy="-104" rx="64.26" ry="18"/>
<text text-anchor="middle" x="230" y="-99.8" font-family="Times,serif" font-size="14.00">StoresService</text>
</g>
<!-- StoresService&#45;&gt;UsersModule -->
<g id="edge12" class="edge">
<title>StoresService&#45;&gt;UsersModule</title>
<path fill="none" stroke="black" d="M230,-122.04C230,-143.66 230,-177 230,-177 230,-177 896.29,-177 896.29,-177"/>
<polygon fill="black" stroke="black" points="896.29,-180.5 906.29,-177 896.29,-173.5 896.29,-180.5"/>
</g>
<!-- UsersService -->
<g id="node13" class="node">
<title>UsersService</title>
<ellipse fill="#fdb462" stroke="black" cx="86" cy="-104" rx="61.95" ry="18"/>
<text text-anchor="middle" x="86" y="-99.8" font-family="Times,serif" font-size="14.00">UsersService</text>
</g>
<!-- UsersService&#45;&gt;UsersModule -->
<g id="edge13" class="edge">
<title>UsersService&#45;&gt;UsersModule</title>
<path fill="none" stroke="black" d="M86,-122.09C86,-145.13 86,-182 86,-182 86,-182 896.05,-182 896.05,-182"/>
<polygon fill="black" stroke="black" points="896.05,-185.5 906.05,-182 896.05,-178.5 896.05,-185.5"/>
</g>
</g>
</svg>
