<?xml version="1.0" encoding="UTF-8" standalone="no"?>
<!DOCTYPE svg PUBLIC "-//W3C//DTD SVG 1.1//EN"
 "http://www.w3.org/Graphics/SVG/1.1/DTD/svg11.dtd">
<!-- Generated by graphviz version 2.47.0 (20210316.0004)
 -->
<!-- Title: dependencies Pages: 1 -->
<svg width="1335pt" height="211pt"
 viewBox="0.00 0.00 1335.00 211.00" xmlns="http://www.w3.org/2000/svg" xmlns:xlink="http://www.w3.org/1999/xlink">
<g id="graph0" class="graph" transform="scale(1 1) rotate(0) translate(4 207)">
<title>dependencies</title>
<polygon fill="white" stroke="transparent" points="-4,4 -4,-207 1331,-207 1331,4 -4,4"/>
<text text-anchor="start" x="642.51" y="-42.4" font-family="Times-12" font-weight="bold" font-size="14.00">Legend</text>
<polygon fill="#ffffb3" stroke="transparent" points="429.5,-10 429.5,-30 449.5,-30 449.5,-10 429.5,-10"/>
<text text-anchor="start" x="453.13" y="-15.4" font-family="Times-12" font-size="14.00"> &#160;Declarations</text>
<polygon fill="#8dd3c7" stroke="transparent" points="542.5,-10 542.5,-30 562.5,-30 562.5,-10 542.5,-10"/>
<text text-anchor="start" x="566.23" y="-15.4" font-family="Times-12" font-size="14.00"> &#160;Module</text>
<polygon fill="#80b1d3" stroke="transparent" points="628.5,-10 628.5,-30 648.5,-30 648.5,-10 628.5,-10"/>
<text text-anchor="start" x="652.28" y="-15.4" font-family="Times-12" font-size="14.00"> &#160;Bootstrap</text>
<polygon fill="#fdb462" stroke="transparent" points="725.5,-10 725.5,-30 745.5,-30 745.5,-10 725.5,-10"/>
<text text-anchor="start" x="749.17" y="-15.4" font-family="Times-12" font-size="14.00"> &#160;Providers</text>
<polygon fill="#fb8072" stroke="transparent" points="821.5,-10 821.5,-30 841.5,-30 841.5,-10 821.5,-10"/>
<text text-anchor="start" x="845.23" y="-15.4" font-family="Times-12" font-size="14.00"> &#160;Exports</text>
<g id="clust1" class="cluster">
<title>cluster_ProductsModule</title>
<polygon fill="none" stroke="black" stroke-dasharray="1,5" points="8,-70 8,-195 1319,-195 1319,-70 8,-70"/>
</g>
<g id="clust6" class="cluster">
<title>cluster_ProductsModule_providers</title>
<polygon fill="none" stroke="black" points="16,-78 16,-130 1311,-130 1311,-78 16,-78"/>
</g>
<!-- CalibersService -->
<g id="node1" class="node">
<title>CalibersService</title>
<ellipse fill="#fdb462" stroke="black" cx="1231" cy="-104" rx="72.34" ry="18"/>
<text text-anchor="middle" x="1231" y="-99.8" font-family="Times,serif" font-size="14.00">CalibersService</text>
</g>
<!-- ProductsModule -->
<g id="node9" class="node">
<title>ProductsModule</title>
<polygon fill="#8dd3c7" stroke="black" points="707.04,-187 704.04,-191 683.04,-191 680.04,-187 598.96,-187 598.96,-151 707.04,-151 707.04,-187"/>
<text text-anchor="middle" x="653" y="-164.8" font-family="Times,serif" font-size="14.00">ProductsModule</text>
</g>
<!-- CalibersService&#45;&gt;ProductsModule -->
<g id="edge1" class="edge">
<title>CalibersService&#45;&gt;ProductsModule</title>
<path fill="none" stroke="black" d="M1231,-122.29C1231,-144.21 1231,-178 1231,-178 1231,-178 717.12,-178 717.12,-178"/>
<polygon fill="black" stroke="black" points="717.12,-174.5 707.12,-178 717.12,-181.5 717.12,-174.5"/>
</g>
<!-- CategoresService -->
<g id="node2" class="node">
<title>CategoresService</title>
<ellipse fill="#fdb462" stroke="black" cx="1062" cy="-104" rx="78.71" ry="18"/>
<text text-anchor="middle" x="1062" y="-99.8" font-family="Times,serif" font-size="14.00">CategoresService</text>
</g>
<!-- CategoresService&#45;&gt;ProductsModule -->
<g id="edge2" class="edge">
<title>CategoresService&#45;&gt;ProductsModule</title>
<path fill="none" stroke="black" d="M1062,-122.11C1062,-141.34 1062,-169 1062,-169 1062,-169 717.31,-169 717.31,-169"/>
<polygon fill="black" stroke="black" points="717.31,-165.5 707.31,-169 717.31,-172.5 717.31,-165.5"/>
</g>
<!-- ColorsService -->
<g id="node3" class="node">
<title>ColorsService</title>
<ellipse fill="#fdb462" stroke="black" cx="900" cy="-104" rx="65.99" ry="18"/>
<text text-anchor="middle" x="900" y="-99.8" font-family="Times,serif" font-size="14.00">ColorsService</text>
</g>
<!-- ColorsService&#45;&gt;ProductsModule -->
<g id="edge3" class="edge">
<title>ColorsService&#45;&gt;ProductsModule</title>
<path fill="none" stroke="black" d="M900,-122.03C900,-138.4 900,-160 900,-160 900,-160 717.21,-160 717.21,-160"/>
<polygon fill="black" stroke="black" points="717.21,-156.5 707.21,-160 717.21,-163.5 717.21,-156.5"/>
</g>
<!-- DiscountsService -->
<g id="node4" class="node">
<title>DiscountsService</title>
<ellipse fill="#fdb462" stroke="black" cx="738" cy="-104" rx="78.73" ry="18"/>
<text text-anchor="middle" x="738" y="-99.8" font-family="Times,serif" font-size="14.00">DiscountsService</text>
</g>
<!-- DiscountsService&#45;&gt;ProductsModule -->
<g id="edge4" class="edge">
<title>DiscountsService&#45;&gt;ProductsModule</title>
<path fill="none" stroke="black" d="M683.33,-117.15C683.33,-117.15 683.33,-140.69 683.33,-140.69"/>
<polygon fill="black" stroke="black" points="679.83,-140.69 683.33,-150.69 686.83,-140.69 679.83,-140.69"/>
</g>
<!-- ProductsService -->
<g id="node5" class="node">
<title>ProductsService</title>
<ellipse fill="#fdb462" stroke="black" cx="568" cy="-104" rx="73.57" ry="18"/>
<text text-anchor="middle" x="568" y="-99.8" font-family="Times,serif" font-size="14.00">ProductsService</text>
</g>
<!-- ProductsService&#45;&gt;ProductsModule -->
<g id="edge5" class="edge">
<title>ProductsService&#45;&gt;ProductsModule</title>
<path fill="none" stroke="black" d="M620.26,-116.84C620.26,-116.84 620.26,-140.52 620.26,-140.52"/>
<polygon fill="black" stroke="black" points="616.76,-140.52 620.26,-150.52 623.76,-140.52 616.76,-140.52"/>
</g>
<!-- PurchasingService -->
<g id="node6" class="node">
<title>PurchasingService</title>
<ellipse fill="#fdb462" stroke="black" cx="393" cy="-104" rx="82.8" ry="18"/>
<text text-anchor="middle" x="393" y="-99.8" font-family="Times,serif" font-size="14.00">PurchasingService</text>
</g>
<!-- PurchasingService&#45;&gt;ProductsModule -->
<g id="edge6" class="edge">
<title>PurchasingService&#45;&gt;ProductsModule</title>
<path fill="none" stroke="black" d="M393,-122.03C393,-138.4 393,-160 393,-160 393,-160 588.81,-160 588.81,-160"/>
<polygon fill="black" stroke="black" points="588.81,-163.5 598.81,-160 588.81,-156.5 588.81,-163.5"/>
</g>
<!-- StonesService -->
<g id="node7" class="node">
<title>StonesService</title>
<ellipse fill="#fdb462" stroke="black" cx="226" cy="-104" rx="65.99" ry="18"/>
<text text-anchor="middle" x="226" y="-99.8" font-family="Times,serif" font-size="14.00">StonesService</text>
</g>
<!-- StonesService&#45;&gt;ProductsModule -->
<g id="edge7" class="edge">
<title>StonesService&#45;&gt;ProductsModule</title>
<path fill="none" stroke="black" d="M226,-122.11C226,-141.34 226,-169 226,-169 226,-169 588.92,-169 588.92,-169"/>
<polygon fill="black" stroke="black" points="588.92,-172.5 598.92,-169 588.92,-165.5 588.92,-172.5"/>
</g>
<!-- TagsService -->
<g id="node8" class="node">
<title>TagsService</title>
<ellipse fill="#fdb462" stroke="black" cx="83" cy="-104" rx="58.53" ry="18"/>
<text text-anchor="middle" x="83" y="-99.8" font-family="Times,serif" font-size="14.00">TagsService</text>
</g>
<!-- TagsService&#45;&gt;ProductsModule -->
<g id="edge8" class="edge">
<title>TagsService&#45;&gt;ProductsModule</title>
<path fill="none" stroke="black" d="M83,-122.29C83,-144.21 83,-178 83,-178 83,-178 588.86,-178 588.86,-178"/>
<polygon fill="black" stroke="black" points="588.86,-181.5 598.86,-178 588.86,-174.5 588.86,-181.5"/>
</g>
</g>
</svg>
