<?xml version="1.0" encoding="UTF-8" standalone="no"?>
<!DOCTYPE svg PUBLIC "-//W3C//DTD SVG 1.1//EN"
 "http://www.w3.org/Graphics/SVG/1.1/DTD/svg11.dtd">
<!-- Generated by graphviz version 2.47.0 (20210316.0004)
 -->
<!-- Title: dependencies Pages: 1 -->
<svg width="1058pt" height="211pt"
 viewBox="0.00 0.00 1058.00 211.00" xmlns="http://www.w3.org/2000/svg" xmlns:xlink="http://www.w3.org/1999/xlink">
<g id="graph0" class="graph" transform="scale(1 1) rotate(0) translate(4 207)">
<title>dependencies</title>
<polygon fill="white" stroke="transparent" points="-4,4 -4,-207 1054,-207 1054,4 -4,4"/>
<text text-anchor="start" x="504.01" y="-42.4" font-family="Times-12" font-weight="bold" font-size="14.00">Legend</text>
<polygon fill="#ffffb3" stroke="transparent" points="291,-10 291,-30 311,-30 311,-10 291,-10"/>
<text text-anchor="start" x="314.63" y="-15.4" font-family="Times-12" font-size="14.00"> &#160;Declarations</text>
<polygon fill="#8dd3c7" stroke="transparent" points="404,-10 404,-30 424,-30 424,-10 404,-10"/>
<text text-anchor="start" x="427.73" y="-15.4" font-family="Times-12" font-size="14.00"> &#160;Module</text>
<polygon fill="#80b1d3" stroke="transparent" points="490,-10 490,-30 510,-30 510,-10 490,-10"/>
<text text-anchor="start" x="513.78" y="-15.4" font-family="Times-12" font-size="14.00"> &#160;Bootstrap</text>
<polygon fill="#fdb462" stroke="transparent" points="587,-10 587,-30 607,-30 607,-10 587,-10"/>
<text text-anchor="start" x="610.67" y="-15.4" font-family="Times-12" font-size="14.00"> &#160;Providers</text>
<polygon fill="#fb8072" stroke="transparent" points="683,-10 683,-30 703,-30 703,-10 683,-10"/>
<text text-anchor="start" x="706.73" y="-15.4" font-family="Times-12" font-size="14.00"> &#160;Exports</text>
<g id="clust1" class="cluster">
<title>cluster_CartsModule</title>
<polygon fill="none" stroke="black" stroke-dasharray="1,5" points="8,-70 8,-195 1042,-195 1042,-70 8,-70"/>
</g>
<g id="clust6" class="cluster">
<title>cluster_CartsModule_providers</title>
<polygon fill="none" stroke="black" points="16,-78 16,-130 1034,-130 1034,-78 16,-78"/>
</g>
<!-- CartItemsService -->
<g id="node1" class="node">
<title>CartItemsService</title>
<ellipse fill="#fdb462" stroke="black" cx="948" cy="-104" rx="78.14" ry="18"/>
<text text-anchor="middle" x="948" y="-99.8" font-family="Times,serif" font-size="14.00">CartItemsService</text>
</g>
<!-- CartsModule -->
<g id="node7" class="node">
<title>CartsModule</title>
<polygon fill="#8dd3c7" stroke="black" points="605.6,-187 602.6,-191 581.6,-191 578.6,-187 516.4,-187 516.4,-151 605.6,-151 605.6,-187"/>
<text text-anchor="middle" x="561" y="-164.8" font-family="Times,serif" font-size="14.00">CartsModule</text>
</g>
<!-- CartItemsService&#45;&gt;CartsModule -->
<g id="edge1" class="edge">
<title>CartItemsService&#45;&gt;CartsModule</title>
<path fill="none" stroke="black" d="M948,-122.28C948,-143.32 948,-175 948,-175 948,-175 615.77,-175 615.77,-175"/>
<polygon fill="black" stroke="black" points="615.77,-171.5 605.77,-175 615.77,-178.5 615.77,-171.5"/>
</g>
<!-- CartsService -->
<g id="node2" class="node">
<title>CartsService</title>
<ellipse fill="#fdb462" stroke="black" cx="792" cy="-104" rx="60.25" ry="18"/>
<text text-anchor="middle" x="792" y="-99.8" font-family="Times,serif" font-size="14.00">CartsService</text>
</g>
<!-- CartsService&#45;&gt;CartsModule -->
<g id="edge2" class="edge">
<title>CartsService&#45;&gt;CartsModule</title>
<path fill="none" stroke="black" d="M792,-122.02C792,-139.37 792,-163 792,-163 792,-163 615.81,-163 615.81,-163"/>
<polygon fill="black" stroke="black" points="615.81,-159.5 605.81,-163 615.81,-166.5 615.81,-159.5"/>
</g>
<!-- CouponsService -->
<g id="node3" class="node">
<title>CouponsService</title>
<ellipse fill="#fdb462" stroke="black" cx="639" cy="-104" rx="74.16" ry="18"/>
<text text-anchor="middle" x="639" y="-99.8" font-family="Times,serif" font-size="14.00">CouponsService</text>
</g>
<!-- CouponsService&#45;&gt;CartsModule -->
<g id="edge3" class="edge">
<title>CouponsService&#45;&gt;CartsModule</title>
<path fill="none" stroke="black" d="M585.11,-116.53C585.11,-116.53 585.11,-140.85 585.11,-140.85"/>
<polygon fill="black" stroke="black" points="581.61,-140.85 585.11,-150.85 588.61,-140.85 581.61,-140.85"/>
</g>
<!-- PagesService -->
<g id="node4" class="node">
<title>PagesService</title>
<ellipse fill="#fdb462" stroke="black" cx="484" cy="-104" rx="62.54" ry="18"/>
<text text-anchor="middle" x="484" y="-99.8" font-family="Times,serif" font-size="14.00">PagesService</text>
</g>
<!-- PagesService&#45;&gt;CartsModule -->
<g id="edge4" class="edge">
<title>PagesService&#45;&gt;CartsModule</title>
<path fill="none" stroke="black" d="M531.48,-115.92C531.48,-115.92 531.48,-140.77 531.48,-140.77"/>
<polygon fill="black" stroke="black" points="527.98,-140.77 531.48,-150.77 534.98,-140.77 527.98,-140.77"/>
</g>
<!-- ShippingMethodsService -->
<g id="node5" class="node">
<title>ShippingMethodsService</title>
<ellipse fill="#fdb462" stroke="black" cx="295" cy="-104" rx="108.83" ry="18"/>
<text text-anchor="middle" x="295" y="-99.8" font-family="Times,serif" font-size="14.00">ShippingMethodsService</text>
</g>
<!-- ShippingMethodsService&#45;&gt;CartsModule -->
<g id="edge5" class="edge">
<title>ShippingMethodsService&#45;&gt;CartsModule</title>
<path fill="none" stroke="black" d="M295,-122.02C295,-139.37 295,-163 295,-163 295,-163 506.18,-163 506.18,-163"/>
<polygon fill="black" stroke="black" points="506.18,-166.5 516.18,-163 506.18,-159.5 506.18,-166.5"/>
</g>
<!-- WishlistService -->
<g id="node6" class="node">
<title>WishlistService</title>
<ellipse fill="#fdb462" stroke="black" cx="96" cy="-104" rx="72.36" ry="18"/>
<text text-anchor="middle" x="96" y="-99.8" font-family="Times,serif" font-size="14.00">WishlistService</text>
</g>
<!-- WishlistService&#45;&gt;CartsModule -->
<g id="edge6" class="edge">
<title>WishlistService&#45;&gt;CartsModule</title>
<path fill="none" stroke="black" d="M96,-122.28C96,-143.32 96,-175 96,-175 96,-175 506.41,-175 506.41,-175"/>
<polygon fill="black" stroke="black" points="506.41,-178.5 516.41,-175 506.41,-171.5 506.41,-178.5"/>
</g>
</g>
</svg>
