<?xml version="1.0" encoding="UTF-8" standalone="no"?>
<!DOCTYPE svg PUBLIC "-//W3C//DTD SVG 1.1//EN"
 "http://www.w3.org/Graphics/SVG/1.1/DTD/svg11.dtd">
<!-- Generated by graphviz version 2.47.0 (20210316.0004)
 -->
<!-- Title: dependencies Pages: 1 -->
<svg width="1554pt" height="211pt"
 viewBox="0.00 0.00 1554.00 211.00" xmlns="http://www.w3.org/2000/svg" xmlns:xlink="http://www.w3.org/1999/xlink">
<g id="graph0" class="graph" transform="scale(1 1) rotate(0) translate(4 207)">
<title>dependencies</title>
<polygon fill="white" stroke="transparent" points="-4,4 -4,-207 1550,-207 1550,4 -4,4"/>
<text text-anchor="start" x="752.01" y="-42.4" font-family="Times-12" font-weight="bold" font-size="14.00">Legend</text>
<polygon fill="#ffffb3" stroke="transparent" points="539,-10 539,-30 559,-30 559,-10 539,-10"/>
<text text-anchor="start" x="562.63" y="-15.4" font-family="Times-12" font-size="14.00"> &#160;Declarations</text>
<polygon fill="#8dd3c7" stroke="transparent" points="652,-10 652,-30 672,-30 672,-10 652,-10"/>
<text text-anchor="start" x="675.73" y="-15.4" font-family="Times-12" font-size="14.00"> &#160;Module</text>
<polygon fill="#80b1d3" stroke="transparent" points="738,-10 738,-30 758,-30 758,-10 738,-10"/>
<text text-anchor="start" x="761.78" y="-15.4" font-family="Times-12" font-size="14.00"> &#160;Bootstrap</text>
<polygon fill="#fdb462" stroke="transparent" points="835,-10 835,-30 855,-30 855,-10 835,-10"/>
<text text-anchor="start" x="858.67" y="-15.4" font-family="Times-12" font-size="14.00"> &#160;Providers</text>
<polygon fill="#fb8072" stroke="transparent" points="931,-10 931,-30 951,-30 951,-10 931,-10"/>
<text text-anchor="start" x="954.73" y="-15.4" font-family="Times-12" font-size="14.00"> &#160;Exports</text>
<g id="clust1" class="cluster">
<title>cluster_HrModule</title>
<polygon fill="none" stroke="black" stroke-dasharray="1,5" points="8,-70 8,-195 1538,-195 1538,-70 8,-70"/>
</g>
<g id="clust6" class="cluster">
<title>cluster_HrModule_providers</title>
<polygon fill="none" stroke="black" points="16,-78 16,-130 1530,-130 1530,-78 16,-78"/>
</g>
<!-- AlarmsService -->
<g id="node1" class="node">
<title>AlarmsService</title>
<ellipse fill="#fdb462" stroke="black" cx="1454" cy="-104" rx="68.33" ry="18"/>
<text text-anchor="middle" x="1454" y="-99.8" font-family="Times,serif" font-size="14.00">AlarmsService</text>
</g>
<!-- HrModule -->
<g id="node10" class="node">
<title>HrModule</title>
<polygon fill="#8dd3c7" stroke="black" points="778.32,-187 775.32,-191 754.32,-191 751.32,-187 703.68,-187 703.68,-151 778.32,-151 778.32,-187"/>
<text text-anchor="middle" x="741" y="-164.8" font-family="Times,serif" font-size="14.00">HrModule</text>
</g>
<!-- AlarmsService&#45;&gt;HrModule -->
<g id="edge1" class="edge">
<title>AlarmsService&#45;&gt;HrModule</title>
<path fill="none" stroke="black" d="M1454,-122.01C1454,-144.49 1454,-180 1454,-180 1454,-180 788.33,-180 788.33,-180"/>
<polygon fill="black" stroke="black" points="788.33,-176.5 778.33,-180 788.33,-183.5 788.33,-176.5"/>
</g>
<!-- AlarmstypesService -->
<g id="node2" class="node">
<title>AlarmstypesService</title>
<ellipse fill="#fdb462" stroke="black" cx="1279" cy="-104" rx="88.6" ry="18"/>
<text text-anchor="middle" x="1279" y="-99.8" font-family="Times,serif" font-size="14.00">AlarmstypesService</text>
</g>
<!-- AlarmstypesService&#45;&gt;HrModule -->
<g id="edge2" class="edge">
<title>AlarmstypesService&#45;&gt;HrModule</title>
<path fill="none" stroke="black" d="M1279,-122.13C1279,-142.57 1279,-173 1279,-173 1279,-173 788.4,-173 788.4,-173"/>
<polygon fill="black" stroke="black" points="788.4,-169.5 778.4,-173 788.4,-176.5 788.4,-169.5"/>
</g>
<!-- BranchesService -->
<g id="node3" class="node">
<title>BranchesService</title>
<ellipse fill="#fdb462" stroke="black" cx="1096" cy="-104" rx="75.84" ry="18"/>
<text text-anchor="middle" x="1096" y="-99.8" font-family="Times,serif" font-size="14.00">BranchesService</text>
</g>
<!-- BranchesService&#45;&gt;HrModule -->
<g id="edge3" class="edge">
<title>BranchesService&#45;&gt;HrModule</title>
<path fill="none" stroke="black" d="M1096,-122.27C1096,-140.56 1096,-166 1096,-166 1096,-166 788.32,-166 788.32,-166"/>
<polygon fill="black" stroke="black" points="788.32,-162.5 778.32,-166 788.32,-169.5 788.32,-162.5"/>
</g>
<!-- EmployeesService -->
<g id="node4" class="node">
<title>EmployeesService</title>
<ellipse fill="#fdb462" stroke="black" cx="919" cy="-104" rx="82.8" ry="18"/>
<text text-anchor="middle" x="919" y="-99.8" font-family="Times,serif" font-size="14.00">EmployeesService</text>
</g>
<!-- EmployeesService&#45;&gt;HrModule -->
<g id="edge4" class="edge">
<title>EmployeesService&#45;&gt;HrModule</title>
<path fill="none" stroke="black" d="M919,-122.01C919,-138.05 919,-159 919,-159 919,-159 788.31,-159 788.31,-159"/>
<polygon fill="black" stroke="black" points="788.31,-155.5 778.31,-159 788.31,-162.5 788.31,-155.5"/>
</g>
<!-- FollowupService -->
<g id="node5" class="node">
<title>FollowupService</title>
<ellipse fill="#fdb462" stroke="black" cx="741" cy="-104" rx="77.03" ry="18"/>
<text text-anchor="middle" x="741" y="-99.8" font-family="Times,serif" font-size="14.00">FollowupService</text>
</g>
<!-- FollowupService&#45;&gt;HrModule -->
<g id="edge5" class="edge">
<title>FollowupService&#45;&gt;HrModule</title>
<path fill="none" stroke="black" d="M741,-122.11C741,-122.11 741,-140.99 741,-140.99"/>
<polygon fill="black" stroke="black" points="737.5,-140.99 741,-150.99 744.5,-140.99 737.5,-140.99"/>
</g>
<!-- InvestigationService -->
<g id="node6" class="node">
<title>InvestigationService</title>
<ellipse fill="#fdb462" stroke="black" cx="556" cy="-104" rx="90.33" ry="18"/>
<text text-anchor="middle" x="556" y="-99.8" font-family="Times,serif" font-size="14.00">InvestigationService</text>
</g>
<!-- InvestigationService&#45;&gt;HrModule -->
<g id="edge6" class="edge">
<title>InvestigationService&#45;&gt;HrModule</title>
<path fill="none" stroke="black" d="M556,-122.01C556,-138.05 556,-159 556,-159 556,-159 693.56,-159 693.56,-159"/>
<polygon fill="black" stroke="black" points="693.56,-162.5 703.56,-159 693.56,-155.5 693.56,-162.5"/>
</g>
<!-- LeaveService -->
<g id="node7" class="node">
<title>LeaveService</title>
<ellipse fill="#fdb462" stroke="black" cx="384" cy="-104" rx="63.66" ry="18"/>
<text text-anchor="middle" x="384" y="-99.8" font-family="Times,serif" font-size="14.00">LeaveService</text>
</g>
<!-- LeaveService&#45;&gt;HrModule -->
<g id="edge7" class="edge">
<title>LeaveService&#45;&gt;HrModule</title>
<path fill="none" stroke="black" d="M384,-122.27C384,-140.56 384,-166 384,-166 384,-166 693.81,-166 693.81,-166"/>
<polygon fill="black" stroke="black" points="693.81,-169.5 703.81,-166 693.81,-162.5 693.81,-169.5"/>
</g>
<!-- OrderService -->
<g id="node8" class="node">
<title>OrderService</title>
<ellipse fill="#fdb462" stroke="black" cx="240" cy="-104" rx="62.52" ry="18"/>
<text text-anchor="middle" x="240" y="-99.8" font-family="Times,serif" font-size="14.00">OrderService</text>
</g>
<!-- OrderService&#45;&gt;HrModule -->
<g id="edge8" class="edge">
<title>OrderService&#45;&gt;HrModule</title>
<path fill="none" stroke="black" d="M240,-122.13C240,-142.57 240,-173 240,-173 240,-173 693.75,-173 693.75,-173"/>
<polygon fill="black" stroke="black" points="693.75,-176.5 703.75,-173 693.75,-169.5 693.75,-176.5"/>
</g>
<!-- PayrollService -->
<g id="node9" class="node">
<title>PayrollService</title>
<ellipse fill="#fdb462" stroke="black" cx="92" cy="-104" rx="67.77" ry="18"/>
<text text-anchor="middle" x="92" y="-99.8" font-family="Times,serif" font-size="14.00">PayrollService</text>
</g>
<!-- PayrollService&#45;&gt;HrModule -->
<g id="edge9" class="edge">
<title>PayrollService&#45;&gt;HrModule</title>
<path fill="none" stroke="black" d="M92,-122.01C92,-144.49 92,-180 92,-180 92,-180 693.78,-180 693.78,-180"/>
<polygon fill="black" stroke="black" points="693.78,-183.5 703.78,-180 693.78,-176.5 693.78,-183.5"/>
</g>
</g>
</svg>
