<?xml version="1.0" encoding="UTF-8" standalone="no"?>
<!DOCTYPE svg PUBLIC "-//W3C//DTD SVG 1.1//EN"
 "http://www.w3.org/Graphics/SVG/1.1/DTD/svg11.dtd">
<!-- Generated by graphviz version 2.47.0 (20210316.0004)
 -->
<!-- Title: dependencies Pages: 1 -->
<svg width="994pt" height="211pt"
 viewBox="0.00 0.00 994.00 211.00" xmlns="http://www.w3.org/2000/svg" xmlns:xlink="http://www.w3.org/1999/xlink">
<g id="graph0" class="graph" transform="scale(1 1) rotate(0) translate(4 207)">
<title>dependencies</title>
<polygon fill="white" stroke="transparent" points="-4,4 -4,-207 990,-207 990,4 -4,4"/>
<text text-anchor="start" x="472.01" y="-42.4" font-family="Times-12" font-weight="bold" font-size="14.00">Legend</text>
<polygon fill="#ffffb3" stroke="transparent" points="259,-10 259,-30 279,-30 279,-10 259,-10"/>
<text text-anchor="start" x="282.63" y="-15.4" font-family="Times-12" font-size="14.00"> &#160;Declarations</text>
<polygon fill="#8dd3c7" stroke="transparent" points="372,-10 372,-30 392,-30 392,-10 372,-10"/>
<text text-anchor="start" x="395.73" y="-15.4" font-family="Times-12" font-size="14.00"> &#160;Module</text>
<polygon fill="#80b1d3" stroke="transparent" points="458,-10 458,-30 478,-30 478,-10 458,-10"/>
<text text-anchor="start" x="481.78" y="-15.4" font-family="Times-12" font-size="14.00"> &#160;Bootstrap</text>
<polygon fill="#fdb462" stroke="transparent" points="555,-10 555,-30 575,-30 575,-10 555,-10"/>
<text text-anchor="start" x="578.67" y="-15.4" font-family="Times-12" font-size="14.00"> &#160;Providers</text>
<polygon fill="#fb8072" stroke="transparent" points="651,-10 651,-30 671,-30 671,-10 651,-10"/>
<text text-anchor="start" x="674.73" y="-15.4" font-family="Times-12" font-size="14.00"> &#160;Exports</text>
<g id="clust1" class="cluster">
<title>cluster_GeneralModule</title>
<polygon fill="none" stroke="black" stroke-dasharray="1,5" points="8,-70 8,-195 978,-195 978,-70 8,-70"/>
</g>
<g id="clust6" class="cluster">
<title>cluster_GeneralModule_providers</title>
<polygon fill="none" stroke="black" points="16,-78 16,-130 970,-130 970,-78 16,-78"/>
</g>
<!-- GalleriesService -->
<g id="node1" class="node">
<title>GalleriesService</title>
<ellipse fill="#fdb462" stroke="black" cx="887" cy="-104" rx="74.69" ry="18"/>
<text text-anchor="middle" x="887" y="-99.8" font-family="Times,serif" font-size="14.00">GalleriesService</text>
</g>
<!-- GeneralModule -->
<g id="node6" class="node">
<title>GeneralModule</title>
<polygon fill="#8dd3c7" stroke="black" points="547.85,-187 544.85,-191 523.85,-191 520.85,-187 444.15,-187 444.15,-151 547.85,-151 547.85,-187"/>
<text text-anchor="middle" x="496" y="-164.8" font-family="Times,serif" font-size="14.00">GeneralModule</text>
</g>
<!-- GalleriesService&#45;&gt;GeneralModule -->
<g id="edge1" class="edge">
<title>GalleriesService&#45;&gt;GeneralModule</title>
<path fill="none" stroke="black" d="M887,-122.28C887,-143.32 887,-175 887,-175 887,-175 557.92,-175 557.92,-175"/>
<polygon fill="black" stroke="black" points="557.92,-171.5 547.92,-175 557.92,-178.5 557.92,-171.5"/>
</g>
<!-- HomeSetteingsService -->
<g id="node2" class="node">
<title>HomeSetteingsService</title>
<ellipse fill="#fdb462" stroke="black" cx="695" cy="-104" rx="98.99" ry="18"/>
<text text-anchor="middle" x="695" y="-99.8" font-family="Times,serif" font-size="14.00">HomeSetteingsService</text>
</g>
<!-- HomeSetteingsService&#45;&gt;GeneralModule -->
<g id="edge2" class="edge">
<title>HomeSetteingsService&#45;&gt;GeneralModule</title>
<path fill="none" stroke="black" d="M695,-122.02C695,-139.37 695,-163 695,-163 695,-163 558.02,-163 558.02,-163"/>
<polygon fill="black" stroke="black" points="558.03,-159.5 548.02,-163 558.02,-166.5 558.03,-159.5"/>
</g>
<!-- MailchimpService -->
<g id="node3" class="node">
<title>MailchimpService</title>
<ellipse fill="#fdb462" stroke="black" cx="496" cy="-104" rx="82.24" ry="18"/>
<text text-anchor="middle" x="496" y="-99.8" font-family="Times,serif" font-size="14.00">MailchimpService</text>
</g>
<!-- MailchimpService&#45;&gt;GeneralModule -->
<g id="edge3" class="edge">
<title>MailchimpService&#45;&gt;GeneralModule</title>
<path fill="none" stroke="black" d="M496,-122.11C496,-122.11 496,-140.99 496,-140.99"/>
<polygon fill="black" stroke="black" points="492.5,-140.99 496,-150.99 499.5,-140.99 492.5,-140.99"/>
</g>
<!-- SiteSetteingsService -->
<g id="node4" class="node">
<title>SiteSetteingsService</title>
<ellipse fill="#fdb462" stroke="black" cx="305" cy="-104" rx="90.34" ry="18"/>
<text text-anchor="middle" x="305" y="-99.8" font-family="Times,serif" font-size="14.00">SiteSetteingsService</text>
</g>
<!-- SiteSetteingsService&#45;&gt;GeneralModule -->
<g id="edge4" class="edge">
<title>SiteSetteingsService&#45;&gt;GeneralModule</title>
<path fill="none" stroke="black" d="M305,-122.02C305,-139.37 305,-163 305,-163 305,-163 434.06,-163 434.06,-163"/>
<polygon fill="black" stroke="black" points="434.06,-166.5 444.06,-163 434.06,-159.5 434.06,-166.5"/>
</g>
<!-- TrademarksService -->
<g id="node5" class="node">
<title>TrademarksService</title>
<ellipse fill="#fdb462" stroke="black" cx="110" cy="-104" rx="86.21" ry="18"/>
<text text-anchor="middle" x="110" y="-99.8" font-family="Times,serif" font-size="14.00">TrademarksService</text>
</g>
<!-- TrademarksService&#45;&gt;GeneralModule -->
<g id="edge5" class="edge">
<title>TrademarksService&#45;&gt;GeneralModule</title>
<path fill="none" stroke="black" d="M110,-122.28C110,-143.32 110,-175 110,-175 110,-175 433.94,-175 433.94,-175"/>
<polygon fill="black" stroke="black" points="433.94,-178.5 443.94,-175 433.94,-171.5 433.94,-178.5"/>
</g>
</g>
</svg>
